<svg height="512" viewBox="0 0 512 512" width="512" xmlns="http://www.w3.org/2000/svg"><g><g><path d="m16 256h480v240h-480z" fill="#91cc04"/><circle cx="256" cy="376" fill="#ffda44" r="80"/><g fill="#4e901e"><path d="m72 256a56 56 0 0 1 -56 56v-56z"/><path d="m72 496h-56v-56a56 56 0 0 1 56 56z"/><path d="m496 256v56a56 56 0 0 1 -56-56z"/><path d="m496 440v56h-56a56 56 0 0 1 56-56z"/></g><path d="m296 72h-24v104h-32v-104h-24l40-56z" fill="#ffda44"/><path d="m168 72h-24v104h-32v-104h-24l40-56z" fill="#ffda44"/><path d="m424 72h-24v104h-32v-104h-24l40-56z" fill="#ffda44"/></g><g><path d="m256 288a88 88 0 1 0 88 88 88.1 88.1 0 0 0 -88-88zm0 160a72 72 0 1 1 72-72 72.081 72.081 0 0 1 -72 72z"/><path d="m272 360a8 8 0 0 0 0-16h-8a8 8 0 0 0 -16 0h-8a8 8 0 0 0 -8 8v24a8 8 0 0 0 8 8h24v8h-24a8 8 0 0 0 0 16h8a8 8 0 0 0 16 0h8a8 8 0 0 0 8-8v-24a8 8 0 0 0 -8-8h-24v-8z"/><path d="m496 248h-480a8 8 0 0 0 -8 8v240a8 8 0 0 0 8 8h480a8 8 0 0 0 8-8v-240a8 8 0 0 0 -8-8zm-472 16h39.33a48.116 48.116 0 0 1 -39.33 39.33zm0 224v-39.33a48.116 48.116 0 0 1 39.33 39.33zm464 0h-39.33a48.116 48.116 0 0 1 39.33-39.33zm0-55.48a64.1 64.1 0 0 0 -55.48 55.48h-353.04a64.1 64.1 0 0 0 -55.48-55.48v-113.04a64.1 64.1 0 0 0 55.48-55.48h353.04a64.1 64.1 0 0 0 55.48 55.48zm0-129.19a48.116 48.116 0 0 1 -39.33-39.33h39.33z"/><path d="m216 80h16v96a8 8 0 0 0 8 8h32a8 8 0 0 0 8-8v-96h16a8 8 0 0 0 6.51-12.65l-40-56a8 8 0 0 0 -13.02 0l-40 56a8 8 0 0 0 6.51 12.65zm40-50.236 24.455 34.236h-8.455a8 8 0 0 0 -8 8v96h-16v-96a8 8 0 0 0 -8-8h-8.455z"/><path d="m248 200v32a8 8 0 0 0 16 0v-32a8 8 0 0 0 -16 0z"/><path d="m224 200v16a8 8 0 0 0 16 0v-16a8 8 0 0 0 -16 0z"/><path d="m272 200v8a8 8 0 0 0 16 0v-8a8 8 0 0 0 -16 0z"/><path d="m88 80h16v96a8 8 0 0 0 8 8h32a8 8 0 0 0 8-8v-96h16a8 8 0 0 0 6.51-12.65l-40-56a8 8 0 0 0 -13.02 0l-40 56a8 8 0 0 0 6.51 12.65zm40-50.236 24.455 34.236h-8.455a8 8 0 0 0 -8 8v96h-16v-96a8 8 0 0 0 -8-8h-8.455z"/><path d="m104 200v32a8 8 0 0 0 16 0v-32a8 8 0 0 0 -16 0z"/><path d="m128 200v16a8 8 0 0 0 16 0v-16a8 8 0 0 0 -16 0z"/><path d="m344 80h16v96a8 8 0 0 0 8 8h32a8 8 0 0 0 8-8v-96h16a8 8 0 0 0 6.51-12.65l-40-56a8 8 0 0 0 -13.02 0l-40 56a8 8 0 0 0 6.51 12.65zm40-50.236 24.455 34.236h-8.455a8 8 0 0 0 -8 8v96h-16v-96a8 8 0 0 0 -8-8h-8.455z"/><path d="m368 200v32a8 8 0 0 0 16 0v-32a8 8 0 0 0 -16 0z"/><path d="m400 192a8 8 0 0 0 -8 8v24a8 8 0 0 0 16 0v-24a8 8 0 0 0 -8-8z"/></g></g></svg>