<svg id="Layer_5" enable-background="new 0 0 64 64" height="512" viewBox="0 0 64 64" width="512" xmlns="http://www.w3.org/2000/svg"><g><g><g><path d="m15.78 11.63c.14.24.22.52.22.8 0 .87-.7 1.57-1.57 1.57h-2.43v4h-6v-4h-2.43c-.87 0-1.57-.7-1.57-1.57 0-.28.08-.56.22-.8l5.27-8.77c.31-.53.89-.86 1.51-.86s1.2.33 1.51.86z" fill="#ff826e"/></g><g><path d="m62 51.57c0 .28-.08.56-.22.8l-5.27 8.77c-.31.53-.89.86-1.51.86s-1.2-.33-1.51-.86l-5.27-8.77c-.14-.24-.22-.52-.22-.8 0-.87.7-1.57 1.57-1.57h2.43v-4h6v4h2.43c.87 0 1.57.7 1.57 1.57z" fill="#ff826e"/></g><g><path d="m14 46h4v12h-4z" fill="#ff826e"/></g><g><path d="m22 46h4v14h-4z" fill="#ff826e"/></g><g><path d="m6 46h4v10h-4z" fill="#ff826e"/></g><g><path d="m54 8h4v10h-4z" fill="#ff826e"/></g><g><path d="m46 6h4v12h-4z" fill="#ff826e"/></g><g><path d="m38 4h4v14h-4z" fill="#ff826e"/></g><g><path d="m60 46h-56c-1.105 0-2-.895-2-2v-24c0-1.105.895-2 2-2h56c1.105 0 2 .895 2 2v24c0 1.105-.895 2-2 2z" fill="#b4dd7f"/></g><g><path d="m11 22h21c-5.52 0-10 4.48-10 10s4.48 10 10 10h-21l-2.5-2.5-2.5-2.5v-10z" fill="#a0d468"/></g><g><path d="m58 27v10l-2.5 2.5-2.5 2.5h-21c5.52 0 10-4.48 10-10s-4.48-10-10-10h21z" fill="#a0d468"/></g><g><circle cx="14" cy="32" fill="#fcd770" r="2"/></g><g><circle cx="50" cy="32" fill="#fcd770" r="2"/></g><g><circle cx="32" cy="32" fill="#fcd770" r="10"/></g></g><g><path d="m32 35c-.551 0-1-.448-1-1h-2c0 1.302.839 2.402 2 2.816v2.184h2v-2.184c1.161-.414 2-1.514 2-2.816 0-1.654-1.346-3-3-3-.551 0-1-.448-1-1s.449-1 1-1 1 .448 1 1h2c0-1.302-.839-2.402-2-2.816v-2.184h-2v2.184c-1.161.414-2 1.514-2 2.816 0 1.654 1.346 3 3 3 .551 0 1 .448 1 1s-.449 1-1 1z"/><path d="m10.586 21-5.586 5.586v10.828l5.586 5.586h42.828l5.586-5.586v-10.828l-5.586-5.586zm.828 20-4.414-4.414v-9.172l4.414-4.414h14.281c-2.834 1.992-4.695 5.28-4.695 9s1.861 7.008 4.695 9zm20.586-18c4.962 0 9 4.037 9 9s-4.038 9-9 9-9-4.037-9-9 4.038-9 9-9zm25 13.586-4.414 4.414h-14.281c2.834-1.992 4.695-5.28 4.695-9s-1.861-7.008-4.695-9h14.281l4.414 4.414z"/><path d="m50 29c-1.654 0-3 1.346-3 3s1.346 3 3 3 3-1.346 3-3-1.346-3-3-3zm0 4c-.551 0-1-.448-1-1s.449-1 1-1 1 .448 1 1-.449 1-1 1z"/><path d="m14 29c-1.654 0-3 1.346-3 3s1.346 3 3 3 3-1.346 3-3-1.346-3-3-3zm0 4c-.551 0-1-.448-1-1s.449-1 1-1 1 .448 1 1-.449 1-1 1z"/><circle cx="6" cy="22" r="1"/><circle cx="58" cy="22" r="1"/><circle cx="6" cy="42" r="1"/><circle cx="58" cy="42" r="1"/><path d="m60 47c1.654 0 3-1.346 3-3v-24c0-1.654-1.346-3-3-3h-1v-10h-6v10h-2v-12h-6v12h-2v-14h-6v14h-24v-2h1.434c1.415 0 2.566-1.151 2.566-2.566 0-.465-.126-.922-.366-1.32l-5.262-8.771c-.497-.828-1.406-1.343-2.372-1.343s-1.875.515-2.372 1.343l-5.262 8.771c-.24.398-.366.855-.366 1.32 0 1.415 1.151 2.566 2.566 2.566h1.434v2h-1c-1.654 0-3 1.346-3 3v24c0 1.654 1.346 3 3 3h1v10h6v-10h2v12h6v-12h2v14h6v-14h24v2h-1.434c-1.415 0-2.566 1.151-2.566 2.566 0 .465.126.922.366 1.32l5.262 8.771c.497.828 1.406 1.343 2.372 1.343s1.875-.515 2.372-1.343l5.262-8.771c.24-.398.366-.855.366-1.32 0-1.415-1.151-2.566-2.566-2.566h-1.434v-2zm-5-38h2v8h-2zm-8-2h2v10h-2zm-8-2h2v12h-2zm-35.434 8c-.312 0-.566-.254-.566-.566 0-.103.028-.203.081-.291l5.262-8.771c.275-.459 1.039-.459 1.314 0l5.262 8.771c.053.087.081.188.081.291 0 .312-.254.566-.566.566h-3.434v4h-4v-4zm-.566 31v-24c0-.552.449-1 1-1h56c.551 0 1 .448 1 1v24c0 .552-.449 1-1 1h-56c-.551 0-1-.448-1-1zm6 11h-2v-8h2zm8 2h-2v-10h2zm8 2h-2v-12h2zm35.434-8c.312 0 .566.254.566.566 0 .103-.028.203-.081.291l-5.262 8.771c-.275.459-1.039.459-1.314 0l-5.262-8.771c-.053-.087-.081-.188-.081-.291 0-.312.254-.566.566-.566h3.434v-4h4v4z"/></g></g></svg>