<svg id="Layer_1" enable-background="new 0 0 256 256" height="512" viewBox="0 0 256 256" width="512" xmlns="http://www.w3.org/2000/svg"><g><path d="m229.9 56.4c-5.6 17.2-24 26.6-41.2 21s-26.6-24-21-41.2c2.7-8.2 8.5-15 16.1-19-45.6-16.8-96.2 6.5-113 52s6.5 96.2 52 113 96.2-6.5 113-52c9.1-24.2 6.9-51.2-5.9-73.8z" fill="#edf4fc"/><path d="m4 230.1 58-58c2-2 5.4-2 7.4 0l11.7 11.7c2 2 2 5.4 0 7.4l-58 58c-2 2-5.4 2-7.4 0l-11.7-11.7c-2-2.1-2-5.4 0-7.4z" fill="#5290db"/><path d="m85.9 156.2-16.2 16.2 11.1 11.1 16.2-16.2c-2-1.7-4-3.4-5.8-5.3s-3.6-3.8-5.3-5.8z" fill="#edf4fc"/><path d="m15 197.1h55.1v27.1h-55.1z" fill="#29589f" transform="matrix(.707 -.707 .707 .707 -136.47 91.805)"/><path d="m198.9 79c-18 0-32.7-14.6-32.7-32.7 0-5.9 1.6-11.8 4.7-16.9-38.8-9.6-78.1 14-87.8 52.9s14 78.1 52.9 87.8c38.8 9.6 78.1-14 87.8-52.9 3.8-15.3 2.5-31.5-3.7-46-6 5.1-13.5 7.8-21.2 7.8z" fill="#f5c84c"/><path d="m153.4 190.3c-50 0-90.5-40.5-90.5-90.5 0-24 9.5-47 26.5-64 25-24.9 62.2-33 95.3-20.9 1.3.5 2 1.9 1.5 3.2-.2.6-.6 1.1-1.2 1.4-14.8 7.6-20.6 25.8-13 40.6s25.8 20.6 40.6 13c7.1-3.6 12.4-9.9 14.9-17.5.4-1.3 1.8-2 3.1-1.6.6.2 1.1.6 1.4 1.1 24.6 43.5 9.4 98.7-34.1 123.3-13.5 7.8-28.8 11.9-44.5 11.9zm.1-175.9c-47.2 0-85.5 38.2-85.5 85.3 0 47.2 38.2 85.5 85.3 85.5s85.5-38.2 85.5-85.3c0-13-3-25.9-8.7-37.6-8.8 17.3-30 24.2-47.3 15.4s-24.2-30-15.4-47.3c2.5-4.9 6.1-9.1 10.5-12.4-7.8-2.4-16.1-3.6-24.4-3.6z"/><path d="m19.5 253.2c-2.1 0-4-.8-5.5-2.3l-11.7-11.7c-3-3-3-7.9 0-10.9l58-58c3-3 7.9-3 11 0l11.6 11.7c3 3 3 7.9 0 11l-58 58c-1.4 1.4-3.4 2.2-5.4 2.2zm46.2-80.2c-.7 0-1.4.3-1.9.8l-58 58c-1.1 1.1-1.1 2.8 0 3.9l11.7 11.7c1.1 1 2.8 1 3.9 0l58-58c1.1-1.1 1.1-2.8 0-3.9l-11.7-11.7c-.6-.5-1.3-.8-2-.8z"/><path d="m80.8 186c-.7 0-1.3-.3-1.8-.7l-11.1-11.1c-1-1-1-2.6 0-3.5l16.2-16.2c1-1 2.6-1 3.5 0 .1.1.1.1.1.2 1.8 2.1 3.4 4 5.2 5.7s3.6 3.4 5.7 5.2c1.1.9 1.2 2.5.3 3.5 0 .1-.1.1-.1.2l-16.2 16.2c-.5.3-1.1.5-1.8.5zm-7.6-13.6 7.6 7.6 12.5-12.5c-1.4-1.2-2.7-2.4-3.9-3.7s-2.5-2.5-3.7-3.9z"/><path d="m32.7 242.2c-.7 0-1.3-.3-1.8-.7l-19.1-19.1c-1-1-1-2.6 0-3.5l38.9-38.9c1-.9 2.5-.9 3.5 0l19.2 19c1 1 1 2.6 0 3.5l-38.9 38.9c-.5.5-1.2.8-1.8.8zm-15.6-21.7 15.6 15.6 35.4-35.4-15.6-15.6z"/><path d="m153.4 174.8c-41.4 0-75-33.6-75-75 0-19.9 7.9-38.9 22-53 18.5-18.7 45.5-26.2 71-19.8 1.3.3 2.2 1.7 1.8 3-.1.2-.2.5-.3.7-8.6 14.3-4 32.8 10.3 41.4 11.1 6.7 25.2 5.5 35.1-2.8 1.1-.9 2.6-.8 3.5.3.2.2.3.4.4.6 16.3 38-1.3 82.1-39.3 98.4-9.3 4.1-19.3 6.2-29.5 6.2zm-.2-145c-38.6.1-69.9 31.6-69.7 70.2.1 18.5 7.4 36.2 20.5 49.2 27.3 27.3 71.6 27.3 98.9 0 19.4-19.4 25.7-48.4 16-74-16 11.1-37.9 7.1-49-8.8-7.2-10.4-8.3-23.8-2.9-35.2-4.5-.9-9.1-1.4-13.8-1.4z"/><path d="m200.3 79c-.5 0-1 0-1.5 0-16.8 0-30.8-12.7-32.5-29.4-27.5-7.4-55.7 8.9-63.1 36.4s8.9 55.7 36.4 63.1 55.7-8.9 63.1-36.4c3.1-11.2 2.2-23.1-2.4-33.7z" fill="#fcdd86"/><circle cx="153" cy="99.3" fill="#f5c84c" r="36.8"/><path d="m153 153.4c-29.8 0-54-24.2-54-54s24.2-54 54-54c4.7 0 9.4.6 14 1.8 1 .3 1.7 1.1 1.8 2.2 1.5 15.4 14.5 27.2 30 27.2h1.3c1 0 2 .6 2.4 1.5 11.8 27.4-.9 59.2-28.3 71-6.6 2.8-13.9 4.3-21.2 4.3zm0-103.1c-27.1 0-49 22-49 49s22 49 49 49c27.1 0 49-22 49-49 0-6.1-1.1-12.1-3.4-17.8-17.3 0-32-12.7-34.6-29.9-3.6-.8-7.3-1.3-11-1.3z"/><path d="m157.6 118.1h-14.6c-1.4 0-2.5-1.1-2.5-2.5s1.1-2.5 2.5-2.5h14.6c3.2 0 5.7-2.6 5.7-5.8 0-3.1-2.6-5.6-5.7-5.7h-9.1c-5.9-.1-10.7-4.9-10.6-10.8s4.8-10.6 10.6-10.6h12.9c1.4 0 2.5 1.1 2.5 2.5s-1.1 2.5-2.5 2.5h-12.9c-3.2 0-5.7 2.6-5.7 5.8 0 3.1 2.6 5.6 5.7 5.7h9.1c5.9.1 10.7 4.9 10.6 10.8-.1 5.8-4.8 10.6-10.6 10.6z"/><path d="m153 123.7c-1.4 0-2.5-1.1-2.5-2.5v-44.2c0-1.4 1.1-2.5 2.5-2.5s2.5 1.1 2.5 2.5v44.2c0 1.4-1.1 2.5-2.5 2.5z"/><path d="m153 138.6c-21.7 0-39.3-17.6-39.3-39.3s17.6-39.3 39.3-39.3 39.3 17.6 39.3 39.3c-.1 21.7-17.6 39.3-39.3 39.3zm0-73.5c-18.9 0-34.3 15.3-34.3 34.3s15.3 34.3 34.3 34.3 34.3-15.3 34.3-34.3c-.1-19-15.4-34.3-34.3-34.3z"/><circle cx="198.9" cy="46.3" fill="#ef4460" r="32.7"/><path d="m198.9 81.5c-19.4 0-35.2-15.7-35.2-35.2 0-19.4 15.7-35.2 35.2-35.2s35.1 15.8 35.1 35.2-15.7 35.2-35.1 35.2zm0-65.3c-16.7 0-30.2 13.5-30.2 30.2s13.5 30.2 30.2 30.2 30.1-13.6 30.1-30.3c0-16.6-13.5-30.1-30.1-30.1z"/><path d="m95 8h-2.2v-2.2c0-1.7-1.4-3-3-3-1.7 0-3 1.4-3 3v2.2h-2.2c-1.7 0-3 1.4-3 3s1.4 3 3 3h2.2v2.2c0 1.7 1.4 3 3 3 1.7 0 3-1.4 3-3v-2.2h2.2c1.7 0 3-1.4 3-3s-1.3-3-3-3z" fill="#fc657e"/><path d="m247.8 167.7c-4.3-.8-7.7-4.1-8.5-8.4 0-.1-.1-.2-.2-.2s-.1.1-.2.2c-.9 4.3-4.2 7.6-8.5 8.4-.1 0-.2.1-.2.2s.1.2.2.2c4.3.8 7.7 4.1 8.5 8.4 0 .1.1.2.2.2s.1-.1.2-.2c.9-4.3 4.2-7.6 8.5-8.4.1 0 .2-.1.2-.2s-.1-.1-.2-.2z" fill="#f5c84c"/><path d="m76.5 235.7c-2.9-.5-5.2-2.8-5.8-5.7 0-.1-.1-.1-.2-.1s-.1.1-.1.1c-.6 2.9-2.9 5.2-5.8 5.7-.1 0-.1.1-.1.1 0 .1.1.1.1.1 2.9.5 5.2 2.8 5.8 5.7 0 .1.1.1.2.1s.1-.1.1-.1c.6-2.9 2.9-5.2 5.8-5.7.1 0 .1-.1.1-.1 0-.1-.1-.1-.1-.1z" fill="#70d6f9"/><circle cx="67.2" cy="28.6" fill="#87d147" r="3.2"/><circle cx="81.2" cy="217.6" fill="#f5c84c" r="3.2"/><circle cx="252.8" cy="141.6" fill="#fc657e" r="3.2"/><path d="m203.5 34.6-4.6 4.6-4.6-4.6c-1.9-2-5.1-2-7.1 0s-2 5.1 0 7.1l4.6 4.6-4.6 4.6c-1.9 2-1.9 5.1 0 7.1 1.9 1.9 5.1 1.9 7 0l4.6-4.6 4.6 4.6c1.9 2 5.1 2 7.1 0s2-5.1 0-7.1l-4.6-4.6 4.6-4.6c2-1.9 2-5.1 0-7.1s-5-2-7 0z" fill="#edf4fc"/><path d="m190.7 62c-4.1 0-7.5-3.4-7.5-7.5 0-2 .8-3.9 2.2-5.3l2.9-2.9-2.9-2.9c-3-2.9-3-7.6-.1-10.6s7.6-3 10.6-.1c0 0 .1.1.1.1l2.9 2.9 2.9-2.9c3-2.9 7.7-2.8 10.6.2 2.8 2.9 2.8 7.5 0 10.5l-2.9 2.9 2.9 2.9c2.9 2.9 3 7.7 0 10.6-2.9 2.9-7.7 3-10.6 0l-2.9-2.9-2.9 2.9c-1.4 1.3-3.3 2.1-5.3 2.1zm8.2-11.1c.7 0 1.3.3 1.8.7l4.6 4.6c1 1 2.6 1 3.5 0 1-1 1-2.6 0-3.5l-4.6-4.6c-1-1-1-2.6 0-3.5l4.6-4.6c1-1 1-2.6 0-3.5s-2.6-1-3.5 0l-4.6 4.6c-1 1-2.6 1-3.5 0l-4.6-4.6c-1-1-2.6-1-3.5 0-1 1-1 2.6 0 3.5l4.6 4.6c1 1 1 2.6 0 3.5l-4.6 4.6c-1 1-1 2.6 0 3.5 1 1 2.6 1 3.5 0l4.6-4.6c.4-.4 1-.7 1.7-.7z"/></g></svg>